<?xml version="1.0" encoding="utf-8"?>
<!-- Generator: Adobe Illustrator 16.0.0, SVG Export Plug-In . SVG Version: 6.00 Build 0)  -->
<!DOCTYPE svg PUBLIC "-//W3C//DTD SVG 1.1//EN" "http://www.w3.org/Graphics/SVG/1.1/DTD/svg11.dtd">
<svg version="1.1" id="Layer_1" xmlns="http://www.w3.org/2000/svg" xmlns:xlink="http://www.w3.org/1999/xlink" x="0px" y="0px"
	 width="256px" height="256px" viewBox="0 0 256 256" enable-background="new 0 0 256 256" xml:space="preserve">
<g>
	<path fill="#FFFFFF" d="M175.213,44.15l-33.916,19.859c0,0,59.579,65.089,52.953,90.438
		c-11.861,45.373-161.88,94.784-161.88,94.784s102.732,15.749,130.992-0.799c28.262-16.549,67.592-81.215,64.805-113.847
		C225.938,108.486,175.213,44.15,175.213,44.15z"/>
	<path fill="#FFFFFF" d="M97.173,7.568C68.912,24.117,29.582,88.785,32.37,121.414c2.23,26.107,52.955,90.439,52.955,90.439
		l33.914-19.855c0,0-59.581-65.094-52.955-90.443C78.145,56.183,228.168,6.769,228.168,6.769S125.434-8.979,97.173,7.568z"/>
	<rect x="102.466" y="92.697" fill="none" width="55.465" height="57.378"/>
</g>
</svg>
