<?xml version="1.0" encoding="utf-8"?>
<!-- Generator: Adobe Illustrator 16.0.0, SVG Export Plug-In . SVG Version: 6.00 Build 0)  -->
<!DOCTYPE svg PUBLIC "-//W3C//DTD SVG 1.1//EN" "http://www.w3.org/Graphics/SVG/1.1/DTD/svg11.dtd">
<svg version="1.1" xmlns="http://www.w3.org/2000/svg" xmlns:xlink="http://www.w3.org/1999/xlink" x="0px" y="0px" width="512px"
	 height="512px" viewBox="0 0 512 512" enable-background="new 0 0 512 512" xml:space="preserve">
<g id="Icon">
	<g>
		<polygon fill="#34495E" points="225.81,243.825 89.119,183.597 149.337,46.909 286.032,107.13 		"/>
		<polygon fill="#34495E" points="286.194,156.165 422.885,216.394 362.667,353.083 225.97,292.865 		"/>
		
			<rect x="292.902" y="144.217" transform="matrix(-0.9151 -0.4032 0.4032 -0.9151 640.8096 448.2349)" fill="#00AACC" width="149.371" height="24.893"/>
		<polygon fill="#00AACC" points="207.739,284.831 71.052,224.606 81.087,201.825 217.782,262.051 		"/>
		<polygon fill="#34495E" points="448.983,157.159 157.364,28.68 505.76,28.279 		"/>
		<polygon fill="#34495E" points="63.019,242.832 354.639,371.311 6.24,371.714 		"/>
	</g>
	<g>
		<path fill="#34495E" d="M378.416,367.844l-11.702-5.139l3.488-7.944l2.373,1.042l-2.302,5.241l2.522,1.107l1.896-4.317
			l2.191,0.962l-1.896,4.318l4.614,2.026L378.416,367.844z"/>
		<path fill="#34495E" d="M384.196,355.125c-0.323,0.737-0.732,1.341-1.228,1.812c-0.494,0.471-1.035,0.813-1.621,1.027
			s-1.194,0.304-1.828,0.27c-0.633-0.036-1.247-0.184-1.84-0.444c-0.594-0.261-1.117-0.612-1.572-1.054
			c-0.454-0.442-0.801-0.952-1.038-1.528c-0.239-0.576-0.355-1.207-0.349-1.893c0.005-0.686,0.17-1.396,0.493-2.133
			c0.323-0.736,0.733-1.335,1.232-1.798c0.498-0.463,1.04-0.802,1.626-1.017c0.585-0.215,1.195-0.307,1.831-0.277
			c0.636,0.031,1.25,0.176,1.844,0.437c0.593,0.261,1.116,0.612,1.572,1.054c0.454,0.442,0.8,0.951,1.039,1.527
			c0.238,0.577,0.353,1.206,0.34,1.89C384.687,353.68,384.52,354.39,384.196,355.125z M378.867,355.086
			c0.681,0.299,1.307,0.357,1.878,0.177c0.572-0.183,0.98-0.554,1.227-1.114c0.12-0.274,0.177-0.552,0.168-0.83
			c-0.009-0.279-0.074-0.547-0.197-0.804c-0.124-0.258-0.304-0.497-0.54-0.719c-0.237-0.223-0.521-0.406-0.85-0.551
			c-0.681-0.299-1.307-0.357-1.878-0.176c-0.572,0.182-0.978,0.548-1.219,1.097c-0.121,0.275-0.179,0.554-0.172,0.839
			c0.006,0.285,0.07,0.556,0.193,0.812c0.123,0.258,0.303,0.497,0.54,0.72C378.254,354.757,378.537,354.941,378.867,355.086z"/>
		<path fill="#34495E" d="M382.637,340.857c-0.269,0.643-0.417,1.262-0.442,1.859c-0.026,0.598,0.104,1.104,0.394,1.521l5.191,2.279
			l-1.157,2.637l-8.653-3.799l1.064-2.424l1.747,0.768c-0.447-0.563-0.73-1.149-0.851-1.759c-0.118-0.608-0.072-1.183,0.137-1.719
			c0.097-0.221,0.162-0.355,0.197-0.405L382.637,340.857z"/>
		<path fill="#34495E" d="M391.033,339.197c-0.251,0.571-0.594,1.039-1.03,1.404c-0.436,0.366-0.925,0.63-1.468,0.791
			c-0.543,0.162-1.118,0.221-1.728,0.175c-0.61-0.044-1.217-0.199-1.821-0.465c-0.637-0.279-1.185-0.638-1.642-1.074
			c-0.456-0.437-0.809-0.919-1.055-1.447c-0.247-0.527-0.377-1.089-0.391-1.685s0.109-1.19,0.37-1.784
			c0.285-0.648,0.676-1.157,1.173-1.529s1.058-0.597,1.683-0.677l-1.417-0.622l1.006-2.291l8.059,3.538
			c0.66,0.29,1.198,0.675,1.617,1.153c0.42,0.479,0.716,1.019,0.892,1.62c0.175,0.602,0.227,1.252,0.154,1.954
			c-0.072,0.703-0.271,1.422-0.594,2.158c-0.41,0.934-0.908,1.665-1.494,2.194s-1.268,0.918-2.046,1.166l-0.818-2.03
			c0.502-0.159,0.966-0.432,1.39-0.815c0.425-0.384,0.754-0.845,0.99-1.383c0.141-0.319,0.229-0.641,0.267-0.965
			s0.014-0.636-0.071-0.936c-0.084-0.299-0.245-0.576-0.479-0.83c-0.236-0.255-0.558-0.471-0.964-0.649l-0.841-0.369
			c0.368,0.476,0.566,1.019,0.593,1.627C391.396,338.036,391.284,338.626,391.033,339.197z M389.346,337.354
			c0.178-0.406,0.224-0.816,0.136-1.228c-0.088-0.412-0.267-0.789-0.536-1.131l-1.813-0.796c-0.539-0.026-1.023,0.083-1.451,0.327
			c-0.429,0.244-0.731,0.569-0.91,0.977c-0.125,0.285-0.178,0.574-0.154,0.865c0.022,0.293,0.104,0.57,0.243,0.834
			c0.14,0.266,0.329,0.505,0.567,0.722c0.24,0.217,0.508,0.39,0.805,0.52c0.318,0.141,0.635,0.218,0.95,0.231
			c0.314,0.014,0.61-0.026,0.889-0.121c0.277-0.095,0.526-0.243,0.747-0.448C389.04,337.901,389.215,337.651,389.346,337.354z"/>
		<path fill="#34495E" d="M396.136,327.932c-0.318,0.726-0.722,1.324-1.212,1.798c-0.489,0.473-1.024,0.821-1.607,1.043
			c-0.583,0.223-1.187,0.321-1.811,0.296c-0.625-0.024-1.229-0.165-1.811-0.421c-0.626-0.274-1.172-0.639-1.634-1.091
			c-0.464-0.452-0.817-0.969-1.062-1.547c-0.244-0.58-0.359-1.21-0.349-1.894c0.012-0.683,0.18-1.392,0.503-2.128
			c0.322-0.736,0.73-1.338,1.223-1.803c0.493-0.464,1.032-0.805,1.618-1.02s1.193-0.305,1.819-0.272
			c0.629,0.034,1.238,0.181,1.832,0.44c0.154,0.068,0.303,0.14,0.446,0.216s0.265,0.149,0.365,0.22l-2.808,6.395
			c0.602,0.212,1.137,0.194,1.605-0.052s0.809-0.611,1.021-1.095c0.169-0.385,0.237-0.797,0.208-1.236
			c-0.03-0.439-0.178-0.788-0.444-1.049l1.611-1.967c0.532,0.64,0.854,1.411,0.97,2.313
			C396.737,325.98,396.574,326.933,396.136,327.932z M391.632,323.772c-0.572-0.187-1.094-0.179-1.562,0.021
			c-0.469,0.2-0.813,0.555-1.035,1.06c-0.227,0.516-0.252,1.013-0.075,1.49c0.178,0.478,0.522,0.862,1.037,1.152L391.632,323.772z"
			/>
		<path fill="#34495E" d="M400.474,316.352c-0.005,0.43-0.043,0.904-0.114,1.424c-0.07,0.52-0.213,1.021-0.425,1.504
			c-0.145,0.33-0.322,0.622-0.532,0.877s-0.454,0.452-0.731,0.593c-0.278,0.141-0.593,0.208-0.945,0.204s-0.736-0.098-1.154-0.281
			l-4.517-1.982l-0.484,1.104l-1.994-0.876l0.485-1.104l-2.753-1.208l1.158-2.637l2.752,1.208l0.774-1.763l1.994,0.875l-0.774,1.764
			l3.609,1.585c0.286,0.125,0.524,0.142,0.716,0.048c0.192-0.092,0.335-0.248,0.432-0.468c0.082-0.188,0.136-0.399,0.163-0.638
			c0.025-0.237,0.035-0.455,0.031-0.653L400.474,316.352z"/>
		<path fill="#34495E" d="M405.062,305.902c-0.005,0.43-0.043,0.905-0.114,1.424c-0.07,0.52-0.213,1.021-0.425,1.504
			c-0.145,0.33-0.322,0.623-0.532,0.878s-0.455,0.452-0.732,0.593s-0.592,0.208-0.944,0.204s-0.737-0.098-1.154-0.281l-4.517-1.982
			l-0.484,1.104l-1.994-0.875l0.484-1.104l-2.752-1.208l1.157-2.637l2.753,1.208l0.773-1.764l1.994,0.876l-0.773,1.763l3.609,1.585
			c0.286,0.126,0.524,0.143,0.716,0.049c0.191-0.092,0.335-0.248,0.432-0.468c0.082-0.188,0.136-0.399,0.162-0.638
			c0.025-0.237,0.036-0.455,0.031-0.653L405.062,305.902z"/>
		<path fill="#34495E" d="M409.633,296.744l-1.157,2.637l-4.862-2.135c-0.561-0.246-1.022-0.314-1.385-0.204
			c-0.362,0.109-0.628,0.356-0.797,0.741c-0.067,0.153-0.105,0.336-0.113,0.549s0.019,0.435,0.081,0.665
			c0.063,0.23,0.156,0.458,0.28,0.684c0.124,0.225,0.284,0.427,0.481,0.604l4.961,2.178l-1.158,2.638l-12.031-5.282l1.158-2.638
			l4.828,2.12c-0.375-0.546-0.59-1.141-0.641-1.785s0.063-1.286,0.343-1.924c0.256-0.582,0.564-1.008,0.924-1.275
			c0.36-0.268,0.739-0.429,1.137-0.484c0.396-0.054,0.807-0.028,1.225,0.076c0.419,0.106,0.815,0.24,1.189,0.404L409.633,296.744z"
			/>
		<path fill="#34495E" d="M412.374,290.949c-0.318,0.725-0.723,1.324-1.212,1.797c-0.489,0.474-1.025,0.821-1.607,1.043
			c-0.583,0.224-1.187,0.322-1.812,0.297c-0.624-0.025-1.229-0.166-1.811-0.421c-0.626-0.275-1.171-0.639-1.634-1.092
			c-0.464-0.452-0.817-0.968-1.062-1.547c-0.243-0.579-0.359-1.209-0.348-1.894c0.012-0.683,0.179-1.392,0.502-2.128
			c0.323-0.735,0.731-1.337,1.224-1.803c0.493-0.464,1.031-0.804,1.617-1.02c0.586-0.214,1.193-0.305,1.82-0.271
			c0.628,0.033,1.238,0.18,1.832,0.44c0.153,0.067,0.302,0.139,0.445,0.215c0.144,0.077,0.266,0.149,0.365,0.221l-2.807,6.394
			c0.601,0.212,1.137,0.194,1.605-0.051c0.468-0.247,0.809-0.611,1.021-1.095c0.169-0.385,0.238-0.797,0.208-1.237
			c-0.03-0.438-0.177-0.788-0.443-1.049l1.611-1.967c0.531,0.641,0.854,1.411,0.969,2.313
			C412.976,288.998,412.813,289.949,412.374,290.949z M407.87,286.789c-0.573-0.187-1.094-0.178-1.563,0.021
			c-0.468,0.201-0.813,0.555-1.035,1.061c-0.227,0.516-0.251,1.012-0.075,1.489c0.178,0.479,0.523,0.862,1.037,1.153L407.87,286.789
			z"/>
		<path fill="#34495E" d="M422.448,267.556l-1.157,2.637l-4.862-2.134c-0.571-0.251-1.03-0.331-1.378-0.242
			c-0.348,0.091-0.597,0.306-0.746,0.646c-0.154,0.352-0.162,0.758-0.023,1.219s0.398,0.866,0.782,1.218l4.961,2.178l-1.158,2.637
			l-4.861-2.134c-0.571-0.251-1.031-0.331-1.379-0.242c-0.348,0.09-0.596,0.306-0.745,0.646c-0.154,0.353-0.166,0.757-0.032,1.215
			c0.133,0.458,0.396,0.866,0.79,1.223l4.961,2.178l-1.157,2.637l-8.653-3.799l1.043-2.374l1.45,0.637
			c-0.388-0.55-0.599-1.159-0.632-1.83c-0.033-0.669,0.109-1.367,0.428-2.093c0.154-0.351,0.336-0.645,0.544-0.881
			c0.209-0.235,0.433-0.417,0.671-0.542c0.238-0.124,0.486-0.205,0.745-0.242c0.258-0.037,0.516-0.032,0.771,0.015
			c-0.398-0.556-0.625-1.167-0.681-1.833c-0.054-0.666,0.07-1.345,0.374-2.037c0.241-0.55,0.537-0.946,0.888-1.193
			c0.35-0.246,0.729-0.391,1.135-0.436s0.814-0.013,1.226,0.096c0.412,0.109,0.798,0.242,1.161,0.402L422.448,267.556z"/>
		<path fill="#34495E" d="M425.189,261.761c-0.318,0.725-0.723,1.324-1.212,1.797c-0.489,0.474-1.024,0.821-1.607,1.044
			s-1.187,0.321-1.812,0.296c-0.624-0.025-1.229-0.165-1.811-0.421c-0.626-0.275-1.171-0.639-1.633-1.092
			c-0.464-0.452-0.818-0.968-1.063-1.547c-0.243-0.579-0.359-1.209-0.348-1.893s0.179-1.393,0.502-2.129
			c0.323-0.735,0.731-1.337,1.224-1.803c0.493-0.464,1.032-0.804,1.618-1.02c0.586-0.214,1.192-0.305,1.819-0.271
			c0.628,0.033,1.238,0.18,1.832,0.44c0.153,0.067,0.302,0.14,0.446,0.215c0.143,0.077,0.265,0.149,0.365,0.221l-2.808,6.394
			c0.602,0.212,1.137,0.194,1.605-0.051c0.469-0.247,0.809-0.611,1.021-1.095c0.168-0.385,0.237-0.797,0.208-1.237
			c-0.03-0.438-0.178-0.788-0.444-1.049l1.611-1.967c0.531,0.641,0.854,1.411,0.97,2.313
			C425.791,259.81,425.628,260.761,425.189,261.761z M420.686,257.601c-0.573-0.187-1.094-0.178-1.563,0.021
			c-0.468,0.201-0.813,0.555-1.034,1.061c-0.227,0.516-0.252,1.013-0.075,1.489c0.177,0.479,0.522,0.862,1.037,1.153
			L420.686,257.601z"/>
		<path fill="#34495E" d="M429.328,252.334c-0.159,0.362-0.352,0.727-0.578,1.093c-0.226,0.366-0.47,0.721-0.732,1.064
			c-0.262,0.344-0.539,0.661-0.831,0.952c-0.291,0.291-0.577,0.533-0.858,0.724l-1.324-1.819c0.58-0.427,1.077-0.871,1.489-1.332
			s0.728-0.939,0.944-1.434c0.169-0.385,0.237-0.704,0.206-0.961c-0.032-0.256-0.163-0.436-0.394-0.537
			c-0.231-0.102-0.471-0.042-0.717,0.178c-0.247,0.219-0.605,0.625-1.076,1.218c-0.409,0.516-0.78,0.942-1.112,1.281
			s-0.649,0.589-0.95,0.752s-0.596,0.247-0.886,0.25c-0.29,0.004-0.601-0.067-0.93-0.211c-0.439-0.193-0.801-0.46-1.084-0.801
			c-0.282-0.341-0.48-0.725-0.593-1.155c-0.113-0.429-0.146-0.893-0.099-1.389c0.049-0.497,0.186-1.004,0.412-1.521
			c0.266-0.604,0.627-1.182,1.086-1.734s0.979-1.061,1.564-1.525l1.208,1.77c-0.532,0.409-0.961,0.794-1.284,1.156
			c-0.322,0.362-0.571,0.742-0.744,1.138c-0.146,0.329-0.207,0.627-0.187,0.892c0.021,0.265,0.159,0.452,0.412,0.563
			c0.121,0.054,0.234,0.071,0.341,0.052c0.106-0.019,0.224-0.076,0.351-0.171c0.127-0.094,0.267-0.233,0.418-0.415
			c0.152-0.183,0.334-0.41,0.546-0.686c0.445-0.563,0.846-1.029,1.203-1.397c0.358-0.366,0.7-0.644,1.023-0.828
			c0.323-0.186,0.644-0.281,0.961-0.287c0.316-0.005,0.656,0.073,1.019,0.232c0.429,0.188,0.778,0.443,1.05,0.765
			c0.271,0.323,0.458,0.696,0.56,1.121c0.103,0.425,0.12,0.892,0.054,1.399C429.73,251.239,429.574,251.773,429.328,252.334z"/>
		<path fill="#34495E" d="M433.069,243.813c-0.159,0.362-0.351,0.727-0.577,1.093s-0.471,0.722-0.733,1.064
			c-0.262,0.344-0.539,0.661-0.831,0.952c-0.291,0.292-0.577,0.533-0.858,0.724l-1.323-1.819c0.579-0.427,1.076-0.871,1.489-1.332
			c0.411-0.461,0.727-0.939,0.943-1.434c0.169-0.385,0.237-0.704,0.206-0.961c-0.031-0.256-0.163-0.436-0.394-0.537
			s-0.47-0.042-0.717,0.178c-0.247,0.219-0.605,0.625-1.075,1.218c-0.41,0.516-0.781,0.942-1.113,1.281s-0.649,0.589-0.95,0.752
			s-0.596,0.247-0.886,0.25c-0.29,0.004-0.6-0.066-0.929-0.211c-0.44-0.193-0.801-0.46-1.085-0.801
			c-0.282-0.341-0.48-0.725-0.593-1.155c-0.112-0.429-0.146-0.893-0.099-1.389c0.049-0.497,0.186-1.004,0.413-1.521
			c0.265-0.604,0.626-1.182,1.085-1.734s0.98-1.061,1.564-1.525l1.209,1.77c-0.533,0.409-0.961,0.794-1.285,1.156
			c-0.322,0.362-0.57,0.742-0.744,1.138c-0.145,0.329-0.207,0.627-0.186,0.892s0.158,0.452,0.411,0.563
			c0.121,0.054,0.234,0.071,0.341,0.052c0.106-0.019,0.224-0.076,0.351-0.171c0.127-0.094,0.267-0.233,0.418-0.415
			c0.152-0.183,0.335-0.41,0.546-0.686c0.445-0.563,0.846-1.029,1.204-1.397c0.357-0.366,0.699-0.644,1.022-0.828
			c0.323-0.186,0.644-0.281,0.961-0.287c0.316-0.005,0.656,0.073,1.02,0.232c0.428,0.188,0.777,0.443,1.049,0.765
			c0.271,0.323,0.458,0.696,0.56,1.121c0.103,0.425,0.121,0.892,0.055,1.399C433.473,242.718,433.315,243.252,433.069,243.813z"/>
		<path fill="#34495E" d="M435.143,239.494c0.015-0.033,0.032-0.088,0.053-0.164c0.02-0.076,0.023-0.157,0.008-0.241
			c-0.016-0.086-0.047-0.169-0.097-0.25s-0.138-0.155-0.266-0.225l-2.422-1.063l0.94-2.143l2.917,1.28
			c0.385,0.169,0.66,0.398,0.828,0.688c0.167,0.289,0.267,0.602,0.297,0.936c0.029,0.335,0.004,0.678-0.077,1.028
			c-0.083,0.351-0.188,0.674-0.318,0.971L435.143,239.494z"/>
		<path fill="#34495E" d="M440.299,227.349c-0.159,0.362-0.352,0.727-0.578,1.092c-0.227,0.367-0.471,0.722-0.733,1.065
			c-0.262,0.343-0.538,0.661-0.831,0.952c-0.291,0.291-0.577,0.532-0.858,0.724l-1.323-1.819c0.58-0.427,1.077-0.871,1.489-1.332
			c0.411-0.462,0.728-0.939,0.944-1.434c0.169-0.385,0.236-0.705,0.205-0.962c-0.031-0.256-0.163-0.436-0.394-0.536
			c-0.23-0.102-0.47-0.042-0.717,0.177c-0.246,0.219-0.604,0.626-1.075,1.218c-0.41,0.516-0.78,0.942-1.112,1.281
			c-0.333,0.34-0.649,0.59-0.95,0.753c-0.301,0.162-0.596,0.246-0.887,0.25c-0.289,0.004-0.6-0.067-0.929-0.212
			c-0.439-0.193-0.801-0.459-1.084-0.8c-0.282-0.341-0.48-0.726-0.594-1.156c-0.112-0.429-0.146-0.893-0.098-1.389
			c0.048-0.497,0.186-1.003,0.412-1.52c0.265-0.604,0.627-1.183,1.086-1.734c0.459-0.553,0.979-1.062,1.564-1.525l1.208,1.769
			c-0.533,0.409-0.961,0.794-1.284,1.156c-0.322,0.363-0.571,0.742-0.745,1.138c-0.145,0.33-0.207,0.627-0.186,0.893
			c0.021,0.264,0.158,0.452,0.412,0.563c0.12,0.053,0.234,0.07,0.341,0.052s0.223-0.076,0.35-0.171s0.267-0.233,0.419-0.416
			s0.334-0.409,0.546-0.685c0.444-0.564,0.846-1.03,1.203-1.397c0.358-0.367,0.699-0.644,1.022-0.829
			c0.324-0.186,0.645-0.28,0.961-0.286c0.317-0.005,0.656,0.072,1.02,0.231c0.428,0.188,0.778,0.443,1.05,0.766
			c0.271,0.322,0.458,0.695,0.56,1.121c0.103,0.425,0.12,0.891,0.054,1.399C440.701,226.254,440.545,226.788,440.299,227.349z"/>
		<path fill="#34495E" d="M444.261,216.624c-0.006,0.43-0.044,0.905-0.114,1.424c-0.07,0.52-0.213,1.021-0.425,1.504
			c-0.146,0.33-0.322,0.622-0.532,0.878c-0.21,0.255-0.455,0.452-0.732,0.593s-0.593,0.208-0.944,0.204
			c-0.353-0.004-0.737-0.098-1.154-0.281l-4.517-1.982l-0.485,1.104l-1.994-0.875l0.485-1.104l-2.752-1.208l1.157-2.638l2.752,1.209
			l0.774-1.764l1.994,0.876l-0.774,1.763l3.61,1.585c0.286,0.126,0.524,0.142,0.715,0.049c0.192-0.092,0.336-0.248,0.433-0.469
			c0.082-0.187,0.136-0.398,0.162-0.637c0.025-0.237,0.036-0.455,0.031-0.654L444.261,216.624z"/>
		<path fill="#34495E" d="M446.413,213.422c-0.188,0.428-0.432,0.797-0.73,1.104s-0.63,0.539-0.992,0.694
			c-0.364,0.155-0.746,0.236-1.148,0.242c-0.403,0.008-0.802-0.076-1.198-0.251c-0.428-0.188-0.778-0.449-1.05-0.785
			c-0.273-0.335-0.462-0.724-0.57-1.164s-0.135-0.917-0.08-1.431c0.056-0.513,0.203-1.044,0.445-1.594
			c0.158-0.362,0.343-0.7,0.553-1.015s0.431-0.571,0.663-0.771l-0.396-0.174c-1-0.438-1.754-0.082-2.261,1.072
			c-0.207,0.473-0.324,0.959-0.354,1.457c-0.028,0.498,0.013,1.054,0.123,1.666l-1.988,0.051c-0.122-0.735-0.142-1.452-0.059-2.149
			s0.277-1.392,0.581-2.084c0.574-1.307,1.325-2.184,2.255-2.627c0.928-0.444,1.986-0.406,3.173,0.115l2.225,0.977
			c0.264,0.116,0.47,0.147,0.618,0.095c0.147-0.053,0.287-0.201,0.421-0.444l2.225,0.977c-0.057,0.276-0.123,0.525-0.2,0.748
			c-0.078,0.221-0.153,0.414-0.226,0.579c-0.224,0.479-0.483,0.803-0.781,0.975c-0.298,0.171-0.636,0.211-1.017,0.123l-0.418-0.124
			c0.325,0.602,0.503,1.227,0.533,1.875C446.789,212.208,446.674,212.828,446.413,213.422z M444.858,211.815
			c0.126-0.286,0.197-0.585,0.217-0.897s-0.015-0.594-0.103-0.842c-0.087-0.339-0.239-0.558-0.46-0.654l-0.824-0.362
			c-0.188,0.192-0.367,0.413-0.535,0.66c-0.167,0.248-0.302,0.487-0.403,0.718c-0.212,0.482-0.277,0.93-0.194,1.34
			c0.082,0.409,0.299,0.691,0.65,0.846c0.319,0.14,0.632,0.133,0.942-0.019C444.457,212.452,444.694,212.188,444.858,211.815z"/>
		<path fill="#34495E" d="M445.447,197.802c-0.269,0.643-0.417,1.262-0.442,1.859c-0.026,0.598,0.105,1.104,0.394,1.521l5.191,2.279
			l-1.157,2.637l-8.653-3.799l1.064-2.424l1.747,0.768c-0.447-0.563-0.73-1.149-0.851-1.759c-0.118-0.608-0.072-1.183,0.137-1.719
			c0.097-0.221,0.162-0.355,0.197-0.405L445.447,197.802z"/>
		<path fill="#34495E" d="M454.333,193.683c-0.005,0.43-0.043,0.904-0.114,1.424c-0.07,0.52-0.213,1.021-0.425,1.504
			c-0.145,0.33-0.322,0.622-0.532,0.878c-0.21,0.254-0.454,0.452-0.731,0.593c-0.278,0.14-0.593,0.208-0.945,0.203
			c-0.353-0.003-0.736-0.097-1.154-0.28l-4.517-1.983l-0.484,1.104l-1.994-0.876l0.484-1.104l-2.752-1.209l1.158-2.637l2.752,1.208
			l0.774-1.763l1.994,0.875l-0.774,1.764l3.609,1.585c0.286,0.126,0.524,0.142,0.716,0.049c0.192-0.092,0.335-0.249,0.432-0.469
			c0.082-0.187,0.136-0.399,0.163-0.637c0.024-0.237,0.035-0.456,0.03-0.654L454.333,193.683z"/>
		<path fill="#00AACC" d="M452.792,174.94l1.092-2.488l7.083,7.376l-0.948,2.158l-4.146-0.228l2.98,2.882l-0.947,2.158
			l-10.224-0.223l1.093-2.488l7.241,0.387l-2.002-1.842l-4.522-0.177l0.926-2.109l2.966,0.318l-2.235-1.983l0.927-2.109l3.184,3.226
			l2.719,0.211L452.792,174.94z"/>
		<path fill="#00AACC" d="M458.936,167.081c-0.269,0.643-0.417,1.263-0.442,1.86c-0.026,0.598,0.104,1.104,0.394,1.52l5.191,2.279
			l-1.157,2.638l-8.653-3.8l1.064-2.423l1.747,0.767c-0.447-0.563-0.73-1.148-0.851-1.758c-0.118-0.609-0.072-1.184,0.137-1.72
			c0.097-0.22,0.162-0.355,0.197-0.405L458.936,167.081z"/>
		<path fill="#00AACC" d="M456.181,164.535l-2.39-1.049l1.158-2.637l2.389,1.049L456.181,164.535z M465.822,168.769l-8.652-3.799
			l1.157-2.637l8.653,3.799L465.822,168.769z"/>
		<path fill="#00AACC" d="M469.761,158.545c-0.005,0.43-0.043,0.905-0.114,1.424c-0.07,0.52-0.213,1.021-0.425,1.504
			c-0.145,0.33-0.322,0.623-0.532,0.878s-0.454,0.452-0.731,0.593c-0.278,0.141-0.593,0.208-0.945,0.204s-0.736-0.098-1.154-0.281
			l-4.517-1.982l-0.484,1.104l-1.994-0.875l0.484-1.104l-2.752-1.208l1.158-2.638l2.752,1.209l0.774-1.764l1.993,0.876l-0.773,1.763
			l3.609,1.585c0.286,0.126,0.524,0.142,0.716,0.049c0.191-0.092,0.335-0.248,0.432-0.469c0.082-0.187,0.136-0.398,0.162-0.637
			c0.025-0.237,0.036-0.455,0.031-0.653L469.761,158.545z"/>
		<path fill="#00AACC" d="M461.021,153.51l-2.389-1.05l1.157-2.637l2.39,1.049L461.021,153.51z M470.663,157.743l-8.652-3.8
			l1.157-2.637l8.653,3.799L470.663,157.743z"/>
		<path fill="#00AACC" d="M476.271,144.971l-1.158,2.637l-4.861-2.135c-0.571-0.251-1.033-0.325-1.386-0.226
			c-0.353,0.102-0.605,0.327-0.76,0.679c-0.082,0.188-0.127,0.394-0.134,0.619c-0.008,0.227,0.02,0.455,0.081,0.686
			c0.063,0.23,0.156,0.458,0.28,0.684c0.125,0.225,0.279,0.424,0.466,0.598l4.96,2.178l-1.157,2.637l-8.653-3.799l1.043-2.374
			l1.45,0.637c-0.376-0.545-0.577-1.171-0.602-1.876s0.13-1.437,0.463-2.195c0.246-0.56,0.547-0.968,0.901-1.225
			c0.355-0.258,0.736-0.408,1.143-0.452c0.405-0.045,0.814-0.013,1.225,0.095c0.412,0.109,0.799,0.243,1.161,0.402L476.271,144.971z
			"/>
		<path fill="#00AACC" d="M478.533,139.909c-0.251,0.571-0.594,1.039-1.029,1.404c-0.437,0.366-0.925,0.63-1.469,0.791
			c-0.542,0.162-1.118,0.221-1.728,0.175c-0.61-0.044-1.217-0.199-1.821-0.465c-0.637-0.279-1.184-0.639-1.641-1.074
			c-0.457-0.437-0.81-0.919-1.056-1.447c-0.247-0.527-0.377-1.089-0.391-1.685s0.109-1.19,0.37-1.784
			c0.285-0.648,0.676-1.158,1.173-1.529c0.497-0.372,1.058-0.597,1.683-0.677l-1.417-0.622l1.006-2.291l8.06,3.538
			c0.659,0.29,1.197,0.675,1.617,1.153c0.419,0.479,0.715,1.019,0.891,1.619c0.175,0.602,0.227,1.253,0.154,1.955
			c-0.072,0.703-0.271,1.422-0.594,2.158c-0.41,0.934-0.908,1.665-1.494,2.193c-0.586,0.53-1.268,0.919-2.045,1.167l-0.819-2.031
			c0.503-0.158,0.966-0.431,1.39-0.814c0.425-0.384,0.754-0.845,0.99-1.384c0.141-0.318,0.229-0.64,0.268-0.964
			c0.037-0.324,0.014-0.636-0.071-0.936s-0.246-0.576-0.48-0.831c-0.236-0.254-0.557-0.471-0.964-0.648l-0.841-0.369
			c0.368,0.476,0.566,1.019,0.594,1.626C478.896,138.748,478.784,139.337,478.533,139.909z M476.846,138.066
			c0.178-0.406,0.224-0.816,0.136-1.229c-0.088-0.411-0.266-0.788-0.536-1.13l-1.813-0.796c-0.539-0.026-1.022,0.082-1.451,0.327
			c-0.428,0.244-0.731,0.569-0.91,0.977c-0.125,0.285-0.177,0.573-0.153,0.865c0.021,0.293,0.103,0.57,0.242,0.834
			c0.14,0.266,0.329,0.505,0.567,0.722c0.24,0.217,0.508,0.39,0.805,0.52c0.319,0.141,0.635,0.217,0.95,0.23
			c0.314,0.015,0.611-0.025,0.89-0.12c0.277-0.095,0.525-0.243,0.747-0.448C476.54,138.613,476.715,138.363,476.846,138.066z"/>
		<path fill="#34495E" d="M481.648,132.725l-2.687-1.18l0.94-2.142l2.687,1.179L481.648,132.725z"/>
	</g>
</g>
<g id="IconWhite">
</g>
<g id="Banner">
	<g>
		<path fill="#34495E" d="M81.304,418.176c-0.408-0.405-1.527-1.17-3.36-2.291c-1.833-1.12-4.125-2.291-6.874-3.513
			c-2.75-1.221-5.755-2.292-9.012-3.208c-3.259-0.917-6.518-1.375-9.775-1.375c-4.276,0-7.56,0.764-9.851,2.291
			c-2.292,1.527-3.438,3.769-3.438,6.72c0,1.835,0.51,3.36,1.528,4.583c1.016,1.221,2.468,2.317,4.353,3.285
			c1.883,0.968,4.225,1.857,7.024,2.671c2.802,0.816,6.033,1.734,9.701,2.749c5.192,1.429,9.876,2.981,14.053,4.658
			c4.172,1.681,7.735,3.771,10.692,6.264c2.951,2.497,5.215,5.525,6.795,9.09c1.578,3.564,2.368,7.842,2.368,12.829
			c0,6.11-1.146,11.277-3.438,15.502c-2.289,4.227-5.321,7.639-9.086,10.235c-3.768,2.595-8.122,4.482-13.06,5.65
			c-4.939,1.169-10.003,1.757-15.197,1.757c-3.971,0-8.019-0.307-12.143-0.917c-4.123-0.61-8.172-1.501-12.143-2.674
			c-3.971-1.169-7.842-2.569-11.607-4.198c-3.77-1.63-7.233-3.513-10.387-5.652l10.996-21.843c0.51,0.511,1.884,1.478,4.125,2.902
			c2.238,1.429,4.989,2.853,8.248,4.278c3.257,1.427,6.923,2.698,10.998,3.815c4.071,1.125,8.194,1.682,12.372,1.682
			c8.859,0,13.289-2.696,13.289-8.095c0-2.037-0.665-3.716-1.986-5.04c-1.324-1.322-3.156-2.521-5.498-3.59
			c-2.343-1.069-5.093-2.062-8.248-2.979c-3.159-0.914-6.622-1.932-10.389-3.054c-4.988-1.528-9.316-3.181-12.982-4.964
			c-3.666-1.781-6.72-3.843-9.164-6.186c-2.444-2.342-4.253-5.043-5.422-8.096c-1.172-3.056-1.756-6.617-1.756-10.692
			c0-5.702,1.068-10.74,3.205-15.119c2.141-4.38,5.043-8.07,8.708-11.076c3.667-3.002,7.917-5.269,12.753-6.796
			c4.837-1.528,9.954-2.292,15.351-2.292c3.869,0,7.637,0.359,11.303,1.069c3.666,0.714,7.152,1.629,10.463,2.75
			c3.308,1.121,6.438,2.394,9.393,3.819c2.952,1.425,5.6,2.85,7.944,4.274L81.304,418.176z"/>
		<path fill="#34495E" d="M161.952,494.851l-20.925-32.228l-8.555,8.859v23.368h-24.438V383.35h24.438v64.61l27.188-33.297h25.967
			l-28.869,34.518l31.161,45.67H161.952z"/>
		<path fill="#34495E" d="M245.652,435.588c-5.906,0.103-11.226,1.071-15.962,2.902c-4.734,1.832-8.224,4.581-10.462,8.246v48.114
			h-24.438v-80.188h22.454v16.191c2.85-5.397,6.439-9.599,10.769-12.603c4.326-3.002,8.934-4.606,13.821-4.811
			c2.036,0,3.308,0.053,3.82,0.152V435.588z"/>
		<path fill="#34495E" d="M256.044,414.66v80.184h24.432V414.66H256.044z"/>
		<rect x="256.044" y="383.355" fill="#00AACC" width="24.432" height="22.137"/>
		<path fill="#34495E" d="M345.083,496.379c-6.11,0-11.435-1.297-15.964-3.896c-4.531-2.596-8.12-6.235-10.766-10.92v13.288h-21.385
			V383.35h24.438v44.447c2.646-4.582,6.187-8.171,10.615-10.768c4.431-2.597,9.701-3.894,15.81-3.894
			c5.089,0,9.747,1.094,13.977,3.285c4.222,2.189,7.865,5.167,10.92,8.932c3.054,3.771,5.444,8.225,7.18,13.367
			c1.729,5.142,2.595,10.615,2.595,16.419s-0.942,11.226-2.824,16.266c-1.887,5.044-4.507,9.422-7.866,13.137
			c-3.361,3.718-7.331,6.62-11.916,8.707C355.314,495.333,350.377,496.379,345.083,496.379z M338.206,475.759
			c2.853,0,5.475-0.534,7.868-1.604c2.391-1.069,4.431-2.521,6.11-4.354s2.977-3.996,3.896-6.492
			c0.915-2.493,1.374-5.216,1.374-8.171c0-2.851-0.436-5.575-1.299-8.174c-0.867-2.595-2.115-4.859-3.74-6.794
			c-1.634-1.936-3.54-3.462-5.729-4.583c-2.191-1.119-4.609-1.682-7.258-1.682c-3.868,0-7.406,1.326-10.614,3.974
			c-3.208,2.648-5.675,5.956-7.407,9.926v16.803c1.732,3.464,4.123,6.186,7.18,8.173
			C331.642,474.767,334.847,475.759,338.206,475.759z"/>
		<path fill="#34495E" d="M448.486,494.851l-20.924-32.228l-8.555,8.859v23.368h-24.439V383.35h24.439v64.61l27.187-33.297h25.968
			l-28.868,34.518l31.161,45.67H448.486z"/>
		<path fill="#34495E" d="M481.331,414.66v80.184h24.429V414.66H481.331z"/>
		<rect x="481.331" y="383.355" fill="#00AACC" width="24.429" height="22.137"/>
	</g>
</g>
</svg>
